<?xml version="1.0" encoding="utf-8" standalone="no"?>
<!DOCTYPE svg PUBLIC "-//W3C//DTD SVG 1.1//EN"
  "http://www.w3.org/Graphics/SVG/1.1/DTD/svg11.dtd">
<svg xmlns:xlink="http://www.w3.org/1999/xlink" width="626.82625pt" height="409.969687pt" viewBox="0 0 626.82625 409.969687" xmlns="http://www.w3.org/2000/svg" version="1.1">
 <metadata>
  <rdf:RDF xmlns:dc="http://purl.org/dc/elements/1.1/" xmlns:cc="http://creativecommons.org/ns#" xmlns:rdf="http://www.w3.org/1999/02/22-rdf-syntax-ns#">
   <cc:Work>
    <dc:type rdf:resource="http://purl.org/dc/dcmitype/StillImage"/>
    <dc:date>2025-05-08T11:12:31.190287</dc:date>
    <dc:format>image/svg+xml</dc:format>
    <dc:creator>
     <cc:Agent>
      <dc:title>Matplotlib v3.10.1, https://matplotlib.org/</dc:title>
     </cc:Agent>
    </dc:creator>
   </cc:Work>
  </rdf:RDF>
 </metadata>
 <defs>
  <style type="text/css">*{stroke-linejoin: round; stroke-linecap: butt}</style>
 </defs>
 <g id="figure_1">
  <g id="patch_1">
   <path d="M 0 409.969687 
L 626.82625 409.969687 
L 626.82625 0 
L 0 0 
z
" style="fill: #ffffff"/>
  </g>
  <g id="axes_1">
   <g id="patch_2">
    <path d="M 61.62625 370.477812 
L 619.62625 370.477812 
L 619.62625 37.837812 
L 61.62625 37.837812 
z
" style="fill: #ffffff"/>
   </g>
   <g id="matplotlib.axis_1">
    <g id="xtick_1">
     <g id="line2d_1">
      <path d="M 86.989379 370.477812 
L 86.989379 37.837812 
" clip-path="url(#p0c627f0304)" style="fill: none; stroke-dasharray: 2.96,1.28; stroke-dashoffset: 0; stroke: #b0b0b0; stroke-opacity: 0.7; stroke-width: 0.8"/>
     </g>
     <g id="line2d_2">
      <defs>
       <path id="m0c41c55fd3" d="M 0 0 
L 0 3.5 
" style="stroke: #000000; stroke-width: 0.8"/>
      </defs>
      <g>
       <use xlink:href="#m0c41c55fd3" x="86.989379" y="370.477812" style="stroke: #000000; stroke-width: 0.8"/>
      </g>
     </g>
     <g id="text_1">
      <!-- 0 -->
      <g transform="translate(83.808129 385.07625) scale(0.1 -0.1)">
       <defs>
        <path id="DejaVuSans-30" d="M 2034 4250 
Q 1547 4250 1301 3770 
Q 1056 3291 1056 2328 
Q 1056 1369 1301 889 
Q 1547 409 2034 409 
Q 2525 409 2770 889 
Q 3016 1369 3016 2328 
Q 3016 3291 2770 3770 
Q 2525 4250 2034 4250 
z
M 2034 4750 
Q 2819 4750 3233 4129 
Q 3647 3509 3647 2328 
Q 3647 1150 3233 529 
Q 2819 -91 2034 -91 
Q 1250 -91 836 529 
Q 422 1150 422 2328 
Q 422 3509 836 4129 
Q 1250 4750 2034 4750 
z
" transform="scale(0.015625)"/>
       </defs>
       <use xlink:href="#DejaVuSans-30"/>
      </g>
     </g>
    </g>
    <g id="xtick_2">
     <g id="line2d_3">
      <path d="M 188.444127 370.477812 
L 188.444127 37.837812 
" clip-path="url(#p0c627f0304)" style="fill: none; stroke-dasharray: 2.96,1.28; stroke-dashoffset: 0; stroke: #b0b0b0; stroke-opacity: 0.7; stroke-width: 0.8"/>
     </g>
     <g id="line2d_4">
      <g>
       <use xlink:href="#m0c41c55fd3" x="188.444127" y="370.477812" style="stroke: #000000; stroke-width: 0.8"/>
      </g>
     </g>
     <g id="text_2">
      <!-- 20 -->
      <g transform="translate(182.081627 385.07625) scale(0.1 -0.1)">
       <defs>
        <path id="DejaVuSans-32" d="M 1228 531 
L 3431 531 
L 3431 0 
L 469 0 
L 469 531 
Q 828 903 1448 1529 
Q 2069 2156 2228 2338 
Q 2531 2678 2651 2914 
Q 2772 3150 2772 3378 
Q 2772 3750 2511 3984 
Q 2250 4219 1831 4219 
Q 1534 4219 1204 4116 
Q 875 4013 500 3803 
L 500 4441 
Q 881 4594 1212 4672 
Q 1544 4750 1819 4750 
Q 2544 4750 2975 4387 
Q 3406 4025 3406 3419 
Q 3406 3131 3298 2873 
Q 3191 2616 2906 2266 
Q 2828 2175 2409 1742 
Q 1991 1309 1228 531 
z
" transform="scale(0.015625)"/>
       </defs>
       <use xlink:href="#DejaVuSans-32"/>
       <use xlink:href="#DejaVuSans-30" transform="translate(63.623047 0)"/>
      </g>
     </g>
    </g>
    <g id="xtick_3">
     <g id="line2d_5">
      <path d="M 289.898876 370.477812 
L 289.898876 37.837812 
" clip-path="url(#p0c627f0304)" style="fill: none; stroke-dasharray: 2.96,1.28; stroke-dashoffset: 0; stroke: #b0b0b0; stroke-opacity: 0.7; stroke-width: 0.8"/>
     </g>
     <g id="line2d_6">
      <g>
       <use xlink:href="#m0c41c55fd3" x="289.898876" y="370.477812" style="stroke: #000000; stroke-width: 0.8"/>
      </g>
     </g>
     <g id="text_3">
      <!-- 40 -->
      <g transform="translate(283.536376 385.07625) scale(0.1 -0.1)">
       <defs>
        <path id="DejaVuSans-34" d="M 2419 4116 
L 825 1625 
L 2419 1625 
L 2419 4116 
z
M 2253 4666 
L 3047 4666 
L 3047 1625 
L 3713 1625 
L 3713 1100 
L 3047 1100 
L 3047 0 
L 2419 0 
L 2419 1100 
L 313 1100 
L 313 1709 
L 2253 4666 
z
" transform="scale(0.015625)"/>
       </defs>
       <use xlink:href="#DejaVuSans-34"/>
       <use xlink:href="#DejaVuSans-30" transform="translate(63.623047 0)"/>
      </g>
     </g>
    </g>
    <g id="xtick_4">
     <g id="line2d_7">
      <path d="M 391.353624 370.477812 
L 391.353624 37.837812 
" clip-path="url(#p0c627f0304)" style="fill: none; stroke-dasharray: 2.96,1.28; stroke-dashoffset: 0; stroke: #b0b0b0; stroke-opacity: 0.7; stroke-width: 0.8"/>
     </g>
     <g id="line2d_8">
      <g>
       <use xlink:href="#m0c41c55fd3" x="391.353624" y="370.477812" style="stroke: #000000; stroke-width: 0.8"/>
      </g>
     </g>
     <g id="text_4">
      <!-- 60 -->
      <g transform="translate(384.991124 385.07625) scale(0.1 -0.1)">
       <defs>
        <path id="DejaVuSans-36" d="M 2113 2584 
Q 1688 2584 1439 2293 
Q 1191 2003 1191 1497 
Q 1191 994 1439 701 
Q 1688 409 2113 409 
Q 2538 409 2786 701 
Q 3034 994 3034 1497 
Q 3034 2003 2786 2293 
Q 2538 2584 2113 2584 
z
M 3366 4563 
L 3366 3988 
Q 3128 4100 2886 4159 
Q 2644 4219 2406 4219 
Q 1781 4219 1451 3797 
Q 1122 3375 1075 2522 
Q 1259 2794 1537 2939 
Q 1816 3084 2150 3084 
Q 2853 3084 3261 2657 
Q 3669 2231 3669 1497 
Q 3669 778 3244 343 
Q 2819 -91 2113 -91 
Q 1303 -91 875 529 
Q 447 1150 447 2328 
Q 447 3434 972 4092 
Q 1497 4750 2381 4750 
Q 2619 4750 2861 4703 
Q 3103 4656 3366 4563 
z
" transform="scale(0.015625)"/>
       </defs>
       <use xlink:href="#DejaVuSans-36"/>
       <use xlink:href="#DejaVuSans-30" transform="translate(63.623047 0)"/>
      </g>
     </g>
    </g>
    <g id="xtick_5">
     <g id="line2d_9">
      <path d="M 492.808373 370.477812 
L 492.808373 37.837812 
" clip-path="url(#p0c627f0304)" style="fill: none; stroke-dasharray: 2.96,1.28; stroke-dashoffset: 0; stroke: #b0b0b0; stroke-opacity: 0.7; stroke-width: 0.8"/>
     </g>
     <g id="line2d_10">
      <g>
       <use xlink:href="#m0c41c55fd3" x="492.808373" y="370.477812" style="stroke: #000000; stroke-width: 0.8"/>
      </g>
     </g>
     <g id="text_5">
      <!-- 80 -->
      <g transform="translate(486.445873 385.07625) scale(0.1 -0.1)">
       <defs>
        <path id="DejaVuSans-38" d="M 2034 2216 
Q 1584 2216 1326 1975 
Q 1069 1734 1069 1313 
Q 1069 891 1326 650 
Q 1584 409 2034 409 
Q 2484 409 2743 651 
Q 3003 894 3003 1313 
Q 3003 1734 2745 1975 
Q 2488 2216 2034 2216 
z
M 1403 2484 
Q 997 2584 770 2862 
Q 544 3141 544 3541 
Q 544 4100 942 4425 
Q 1341 4750 2034 4750 
Q 2731 4750 3128 4425 
Q 3525 4100 3525 3541 
Q 3525 3141 3298 2862 
Q 3072 2584 2669 2484 
Q 3125 2378 3379 2068 
Q 3634 1759 3634 1313 
Q 3634 634 3220 271 
Q 2806 -91 2034 -91 
Q 1263 -91 848 271 
Q 434 634 434 1313 
Q 434 1759 690 2068 
Q 947 2378 1403 2484 
z
M 1172 3481 
Q 1172 3119 1398 2916 
Q 1625 2713 2034 2713 
Q 2441 2713 2670 2916 
Q 2900 3119 2900 3481 
Q 2900 3844 2670 4047 
Q 2441 4250 2034 4250 
Q 1625 4250 1398 4047 
Q 1172 3844 1172 3481 
z
" transform="scale(0.015625)"/>
       </defs>
       <use xlink:href="#DejaVuSans-38"/>
       <use xlink:href="#DejaVuSans-30" transform="translate(63.623047 0)"/>
      </g>
     </g>
    </g>
    <g id="xtick_6">
     <g id="line2d_11">
      <path d="M 594.263121 370.477812 
L 594.263121 37.837812 
" clip-path="url(#p0c627f0304)" style="fill: none; stroke-dasharray: 2.96,1.28; stroke-dashoffset: 0; stroke: #b0b0b0; stroke-opacity: 0.7; stroke-width: 0.8"/>
     </g>
     <g id="line2d_12">
      <g>
       <use xlink:href="#m0c41c55fd3" x="594.263121" y="370.477812" style="stroke: #000000; stroke-width: 0.8"/>
      </g>
     </g>
     <g id="text_6">
      <!-- 100 -->
      <g transform="translate(584.719371 385.07625) scale(0.1 -0.1)">
       <defs>
        <path id="DejaVuSans-31" d="M 794 531 
L 1825 531 
L 1825 4091 
L 703 3866 
L 703 4441 
L 1819 4666 
L 2450 4666 
L 2450 531 
L 3481 531 
L 3481 0 
L 794 0 
L 794 531 
z
" transform="scale(0.015625)"/>
       </defs>
       <use xlink:href="#DejaVuSans-31"/>
       <use xlink:href="#DejaVuSans-30" transform="translate(63.623047 0)"/>
       <use xlink:href="#DejaVuSans-30" transform="translate(127.246094 0)"/>
      </g>
     </g>
    </g>
    <g id="text_7">
     <!-- z -->
     <g transform="translate(337.477188 400.274062) scale(0.12 -0.12)">
      <defs>
       <path id="DejaVuSans-7a" d="M 353 3500 
L 3084 3500 
L 3084 2975 
L 922 459 
L 3084 459 
L 3084 0 
L 275 0 
L 275 525 
L 2438 3041 
L 353 3041 
L 353 3500 
z
" transform="scale(0.015625)"/>
      </defs>
      <use xlink:href="#DejaVuSans-7a"/>
     </g>
    </g>
   </g>
   <g id="matplotlib.axis_2">
    <g id="ytick_1">
     <g id="line2d_13">
      <path d="M 61.62625 355.357812 
L 619.62625 355.357812 
" clip-path="url(#p0c627f0304)" style="fill: none; stroke-dasharray: 2.96,1.28; stroke-dashoffset: 0; stroke: #b0b0b0; stroke-opacity: 0.7; stroke-width: 0.8"/>
     </g>
     <g id="line2d_14">
      <defs>
       <path id="mb11276fe5e" d="M 0 0 
L -3.5 0 
" style="stroke: #000000; stroke-width: 0.8"/>
      </defs>
      <g>
       <use xlink:href="#mb11276fe5e" x="61.62625" y="355.357812" style="stroke: #000000; stroke-width: 0.8"/>
      </g>
     </g>
     <g id="text_8">
      <!-- 0 -->
      <g transform="translate(48.26375 359.157031) scale(0.1 -0.1)">
       <use xlink:href="#DejaVuSans-30"/>
      </g>
     </g>
    </g>
    <g id="ytick_2">
     <g id="line2d_15">
      <path d="M 61.62625 311.983323 
L 619.62625 311.983323 
" clip-path="url(#p0c627f0304)" style="fill: none; stroke-dasharray: 2.96,1.28; stroke-dashoffset: 0; stroke: #b0b0b0; stroke-opacity: 0.7; stroke-width: 0.8"/>
     </g>
     <g id="line2d_16">
      <g>
       <use xlink:href="#mb11276fe5e" x="61.62625" y="311.983323" style="stroke: #000000; stroke-width: 0.8"/>
      </g>
     </g>
     <g id="text_9">
      <!-- 5000 -->
      <g transform="translate(29.17625 315.782542) scale(0.1 -0.1)">
       <defs>
        <path id="DejaVuSans-35" d="M 691 4666 
L 3169 4666 
L 3169 4134 
L 1269 4134 
L 1269 2991 
Q 1406 3038 1543 3061 
Q 1681 3084 1819 3084 
Q 2600 3084 3056 2656 
Q 3513 2228 3513 1497 
Q 3513 744 3044 326 
Q 2575 -91 1722 -91 
Q 1428 -91 1123 -41 
Q 819 9 494 109 
L 494 744 
Q 775 591 1075 516 
Q 1375 441 1709 441 
Q 2250 441 2565 725 
Q 2881 1009 2881 1497 
Q 2881 1984 2565 2268 
Q 2250 2553 1709 2553 
Q 1456 2553 1204 2497 
Q 953 2441 691 2322 
L 691 4666 
z
" transform="scale(0.015625)"/>
       </defs>
       <use xlink:href="#DejaVuSans-35"/>
       <use xlink:href="#DejaVuSans-30" transform="translate(63.623047 0)"/>
       <use xlink:href="#DejaVuSans-30" transform="translate(127.246094 0)"/>
       <use xlink:href="#DejaVuSans-30" transform="translate(190.869141 0)"/>
      </g>
     </g>
    </g>
    <g id="ytick_3">
     <g id="line2d_17">
      <path d="M 61.62625 268.608834 
L 619.62625 268.608834 
" clip-path="url(#p0c627f0304)" style="fill: none; stroke-dasharray: 2.96,1.28; stroke-dashoffset: 0; stroke: #b0b0b0; stroke-opacity: 0.7; stroke-width: 0.8"/>
     </g>
     <g id="line2d_18">
      <g>
       <use xlink:href="#mb11276fe5e" x="61.62625" y="268.608834" style="stroke: #000000; stroke-width: 0.8"/>
      </g>
     </g>
     <g id="text_10">
      <!-- 10000 -->
      <g transform="translate(22.81375 272.408053) scale(0.1 -0.1)">
       <use xlink:href="#DejaVuSans-31"/>
       <use xlink:href="#DejaVuSans-30" transform="translate(63.623047 0)"/>
       <use xlink:href="#DejaVuSans-30" transform="translate(127.246094 0)"/>
       <use xlink:href="#DejaVuSans-30" transform="translate(190.869141 0)"/>
       <use xlink:href="#DejaVuSans-30" transform="translate(254.492188 0)"/>
      </g>
     </g>
    </g>
    <g id="ytick_4">
     <g id="line2d_19">
      <path d="M 61.62625 225.234344 
L 619.62625 225.234344 
" clip-path="url(#p0c627f0304)" style="fill: none; stroke-dasharray: 2.96,1.28; stroke-dashoffset: 0; stroke: #b0b0b0; stroke-opacity: 0.7; stroke-width: 0.8"/>
     </g>
     <g id="line2d_20">
      <g>
       <use xlink:href="#mb11276fe5e" x="61.62625" y="225.234344" style="stroke: #000000; stroke-width: 0.8"/>
      </g>
     </g>
     <g id="text_11">
      <!-- 15000 -->
      <g transform="translate(22.81375 229.033563) scale(0.1 -0.1)">
       <use xlink:href="#DejaVuSans-31"/>
       <use xlink:href="#DejaVuSans-35" transform="translate(63.623047 0)"/>
       <use xlink:href="#DejaVuSans-30" transform="translate(127.246094 0)"/>
       <use xlink:href="#DejaVuSans-30" transform="translate(190.869141 0)"/>
       <use xlink:href="#DejaVuSans-30" transform="translate(254.492188 0)"/>
      </g>
     </g>
    </g>
    <g id="ytick_5">
     <g id="line2d_21">
      <path d="M 61.62625 181.859855 
L 619.62625 181.859855 
" clip-path="url(#p0c627f0304)" style="fill: none; stroke-dasharray: 2.96,1.28; stroke-dashoffset: 0; stroke: #b0b0b0; stroke-opacity: 0.7; stroke-width: 0.8"/>
     </g>
     <g id="line2d_22">
      <g>
       <use xlink:href="#mb11276fe5e" x="61.62625" y="181.859855" style="stroke: #000000; stroke-width: 0.8"/>
      </g>
     </g>
     <g id="text_12">
      <!-- 20000 -->
      <g transform="translate(22.81375 185.659074) scale(0.1 -0.1)">
       <use xlink:href="#DejaVuSans-32"/>
       <use xlink:href="#DejaVuSans-30" transform="translate(63.623047 0)"/>
       <use xlink:href="#DejaVuSans-30" transform="translate(127.246094 0)"/>
       <use xlink:href="#DejaVuSans-30" transform="translate(190.869141 0)"/>
       <use xlink:href="#DejaVuSans-30" transform="translate(254.492188 0)"/>
      </g>
     </g>
    </g>
    <g id="ytick_6">
     <g id="line2d_23">
      <path d="M 61.62625 138.485366 
L 619.62625 138.485366 
" clip-path="url(#p0c627f0304)" style="fill: none; stroke-dasharray: 2.96,1.28; stroke-dashoffset: 0; stroke: #b0b0b0; stroke-opacity: 0.7; stroke-width: 0.8"/>
     </g>
     <g id="line2d_24">
      <g>
       <use xlink:href="#mb11276fe5e" x="61.62625" y="138.485366" style="stroke: #000000; stroke-width: 0.8"/>
      </g>
     </g>
     <g id="text_13">
      <!-- 25000 -->
      <g transform="translate(22.81375 142.284584) scale(0.1 -0.1)">
       <use xlink:href="#DejaVuSans-32"/>
       <use xlink:href="#DejaVuSans-35" transform="translate(63.623047 0)"/>
       <use xlink:href="#DejaVuSans-30" transform="translate(127.246094 0)"/>
       <use xlink:href="#DejaVuSans-30" transform="translate(190.869141 0)"/>
       <use xlink:href="#DejaVuSans-30" transform="translate(254.492188 0)"/>
      </g>
     </g>
    </g>
    <g id="ytick_7">
     <g id="line2d_25">
      <path d="M 61.62625 95.110876 
L 619.62625 95.110876 
" clip-path="url(#p0c627f0304)" style="fill: none; stroke-dasharray: 2.96,1.28; stroke-dashoffset: 0; stroke: #b0b0b0; stroke-opacity: 0.7; stroke-width: 0.8"/>
     </g>
     <g id="line2d_26">
      <g>
       <use xlink:href="#mb11276fe5e" x="61.62625" y="95.110876" style="stroke: #000000; stroke-width: 0.8"/>
      </g>
     </g>
     <g id="text_14">
      <!-- 30000 -->
      <g transform="translate(22.81375 98.910095) scale(0.1 -0.1)">
       <defs>
        <path id="DejaVuSans-33" d="M 2597 2516 
Q 3050 2419 3304 2112 
Q 3559 1806 3559 1356 
Q 3559 666 3084 287 
Q 2609 -91 1734 -91 
Q 1441 -91 1130 -33 
Q 819 25 488 141 
L 488 750 
Q 750 597 1062 519 
Q 1375 441 1716 441 
Q 2309 441 2620 675 
Q 2931 909 2931 1356 
Q 2931 1769 2642 2001 
Q 2353 2234 1838 2234 
L 1294 2234 
L 1294 2753 
L 1863 2753 
Q 2328 2753 2575 2939 
Q 2822 3125 2822 3475 
Q 2822 3834 2567 4026 
Q 2313 4219 1838 4219 
Q 1578 4219 1281 4162 
Q 984 4106 628 3988 
L 628 4550 
Q 988 4650 1302 4700 
Q 1616 4750 1894 4750 
Q 2613 4750 3031 4423 
Q 3450 4097 3450 3541 
Q 3450 3153 3228 2886 
Q 3006 2619 2597 2516 
z
" transform="scale(0.015625)"/>
       </defs>
       <use xlink:href="#DejaVuSans-33"/>
       <use xlink:href="#DejaVuSans-30" transform="translate(63.623047 0)"/>
       <use xlink:href="#DejaVuSans-30" transform="translate(127.246094 0)"/>
       <use xlink:href="#DejaVuSans-30" transform="translate(190.869141 0)"/>
       <use xlink:href="#DejaVuSans-30" transform="translate(254.492188 0)"/>
      </g>
     </g>
    </g>
    <g id="ytick_8">
     <g id="line2d_27">
      <path d="M 61.62625 51.736387 
L 619.62625 51.736387 
" clip-path="url(#p0c627f0304)" style="fill: none; stroke-dasharray: 2.96,1.28; stroke-dashoffset: 0; stroke: #b0b0b0; stroke-opacity: 0.7; stroke-width: 0.8"/>
     </g>
     <g id="line2d_28">
      <g>
       <use xlink:href="#mb11276fe5e" x="61.62625" y="51.736387" style="stroke: #000000; stroke-width: 0.8"/>
      </g>
     </g>
     <g id="text_15">
      <!-- 35000 -->
      <g transform="translate(22.81375 55.535606) scale(0.1 -0.1)">
       <use xlink:href="#DejaVuSans-33"/>
       <use xlink:href="#DejaVuSans-35" transform="translate(63.623047 0)"/>
       <use xlink:href="#DejaVuSans-30" transform="translate(127.246094 0)"/>
       <use xlink:href="#DejaVuSans-30" transform="translate(190.869141 0)"/>
       <use xlink:href="#DejaVuSans-30" transform="translate(254.492188 0)"/>
      </g>
     </g>
    </g>
    <g id="text_16">
     <!-- Error (Absolute Difference) -->
     <g transform="translate(16.318125 284.519375) rotate(-90) scale(0.12 -0.12)">
      <defs>
       <path id="DejaVuSans-45" d="M 628 4666 
L 3578 4666 
L 3578 4134 
L 1259 4134 
L 1259 2753 
L 3481 2753 
L 3481 2222 
L 1259 2222 
L 1259 531 
L 3634 531 
L 3634 0 
L 628 0 
L 628 4666 
z
" transform="scale(0.015625)"/>
       <path id="DejaVuSans-72" d="M 2631 2963 
Q 2534 3019 2420 3045 
Q 2306 3072 2169 3072 
Q 1681 3072 1420 2755 
Q 1159 2438 1159 1844 
L 1159 0 
L 581 0 
L 581 3500 
L 1159 3500 
L 1159 2956 
Q 1341 3275 1631 3429 
Q 1922 3584 2338 3584 
Q 2397 3584 2469 3576 
Q 2541 3569 2628 3553 
L 2631 2963 
z
" transform="scale(0.015625)"/>
       <path id="DejaVuSans-6f" d="M 1959 3097 
Q 1497 3097 1228 2736 
Q 959 2375 959 1747 
Q 959 1119 1226 758 
Q 1494 397 1959 397 
Q 2419 397 2687 759 
Q 2956 1122 2956 1747 
Q 2956 2369 2687 2733 
Q 2419 3097 1959 3097 
z
M 1959 3584 
Q 2709 3584 3137 3096 
Q 3566 2609 3566 1747 
Q 3566 888 3137 398 
Q 2709 -91 1959 -91 
Q 1206 -91 779 398 
Q 353 888 353 1747 
Q 353 2609 779 3096 
Q 1206 3584 1959 3584 
z
" transform="scale(0.015625)"/>
       <path id="DejaVuSans-20" transform="scale(0.015625)"/>
       <path id="DejaVuSans-28" d="M 1984 4856 
Q 1566 4138 1362 3434 
Q 1159 2731 1159 2009 
Q 1159 1288 1364 580 
Q 1569 -128 1984 -844 
L 1484 -844 
Q 1016 -109 783 600 
Q 550 1309 550 2009 
Q 550 2706 781 3412 
Q 1013 4119 1484 4856 
L 1984 4856 
z
" transform="scale(0.015625)"/>
       <path id="DejaVuSans-41" d="M 2188 4044 
L 1331 1722 
L 3047 1722 
L 2188 4044 
z
M 1831 4666 
L 2547 4666 
L 4325 0 
L 3669 0 
L 3244 1197 
L 1141 1197 
L 716 0 
L 50 0 
L 1831 4666 
z
" transform="scale(0.015625)"/>
       <path id="DejaVuSans-62" d="M 3116 1747 
Q 3116 2381 2855 2742 
Q 2594 3103 2138 3103 
Q 1681 3103 1420 2742 
Q 1159 2381 1159 1747 
Q 1159 1113 1420 752 
Q 1681 391 2138 391 
Q 2594 391 2855 752 
Q 3116 1113 3116 1747 
z
M 1159 2969 
Q 1341 3281 1617 3432 
Q 1894 3584 2278 3584 
Q 2916 3584 3314 3078 
Q 3713 2572 3713 1747 
Q 3713 922 3314 415 
Q 2916 -91 2278 -91 
Q 1894 -91 1617 61 
Q 1341 213 1159 525 
L 1159 0 
L 581 0 
L 581 4863 
L 1159 4863 
L 1159 2969 
z
" transform="scale(0.015625)"/>
       <path id="DejaVuSans-73" d="M 2834 3397 
L 2834 2853 
Q 2591 2978 2328 3040 
Q 2066 3103 1784 3103 
Q 1356 3103 1142 2972 
Q 928 2841 928 2578 
Q 928 2378 1081 2264 
Q 1234 2150 1697 2047 
L 1894 2003 
Q 2506 1872 2764 1633 
Q 3022 1394 3022 966 
Q 3022 478 2636 193 
Q 2250 -91 1575 -91 
Q 1294 -91 989 -36 
Q 684 19 347 128 
L 347 722 
Q 666 556 975 473 
Q 1284 391 1588 391 
Q 1994 391 2212 530 
Q 2431 669 2431 922 
Q 2431 1156 2273 1281 
Q 2116 1406 1581 1522 
L 1381 1569 
Q 847 1681 609 1914 
Q 372 2147 372 2553 
Q 372 3047 722 3315 
Q 1072 3584 1716 3584 
Q 2034 3584 2315 3537 
Q 2597 3491 2834 3397 
z
" transform="scale(0.015625)"/>
       <path id="DejaVuSans-6c" d="M 603 4863 
L 1178 4863 
L 1178 0 
L 603 0 
L 603 4863 
z
" transform="scale(0.015625)"/>
       <path id="DejaVuSans-75" d="M 544 1381 
L 544 3500 
L 1119 3500 
L 1119 1403 
Q 1119 906 1312 657 
Q 1506 409 1894 409 
Q 2359 409 2629 706 
Q 2900 1003 2900 1516 
L 2900 3500 
L 3475 3500 
L 3475 0 
L 2900 0 
L 2900 538 
Q 2691 219 2414 64 
Q 2138 -91 1772 -91 
Q 1169 -91 856 284 
Q 544 659 544 1381 
z
M 1991 3584 
L 1991 3584 
z
" transform="scale(0.015625)"/>
       <path id="DejaVuSans-74" d="M 1172 4494 
L 1172 3500 
L 2356 3500 
L 2356 3053 
L 1172 3053 
L 1172 1153 
Q 1172 725 1289 603 
Q 1406 481 1766 481 
L 2356 481 
L 2356 0 
L 1766 0 
Q 1100 0 847 248 
Q 594 497 594 1153 
L 594 3053 
L 172 3053 
L 172 3500 
L 594 3500 
L 594 4494 
L 1172 4494 
z
" transform="scale(0.015625)"/>
       <path id="DejaVuSans-65" d="M 3597 1894 
L 3597 1613 
L 953 1613 
Q 991 1019 1311 708 
Q 1631 397 2203 397 
Q 2534 397 2845 478 
Q 3156 559 3463 722 
L 3463 178 
Q 3153 47 2828 -22 
Q 2503 -91 2169 -91 
Q 1331 -91 842 396 
Q 353 884 353 1716 
Q 353 2575 817 3079 
Q 1281 3584 2069 3584 
Q 2775 3584 3186 3129 
Q 3597 2675 3597 1894 
z
M 3022 2063 
Q 3016 2534 2758 2815 
Q 2500 3097 2075 3097 
Q 1594 3097 1305 2825 
Q 1016 2553 972 2059 
L 3022 2063 
z
" transform="scale(0.015625)"/>
       <path id="DejaVuSans-44" d="M 1259 4147 
L 1259 519 
L 2022 519 
Q 2988 519 3436 956 
Q 3884 1394 3884 2338 
Q 3884 3275 3436 3711 
Q 2988 4147 2022 4147 
L 1259 4147 
z
M 628 4666 
L 1925 4666 
Q 3281 4666 3915 4102 
Q 4550 3538 4550 2338 
Q 4550 1131 3912 565 
Q 3275 0 1925 0 
L 628 0 
L 628 4666 
z
" transform="scale(0.015625)"/>
       <path id="DejaVuSans-69" d="M 603 3500 
L 1178 3500 
L 1178 0 
L 603 0 
L 603 3500 
z
M 603 4863 
L 1178 4863 
L 1178 4134 
L 603 4134 
L 603 4863 
z
" transform="scale(0.015625)"/>
       <path id="DejaVuSans-66" d="M 2375 4863 
L 2375 4384 
L 1825 4384 
Q 1516 4384 1395 4259 
Q 1275 4134 1275 3809 
L 1275 3500 
L 2222 3500 
L 2222 3053 
L 1275 3053 
L 1275 0 
L 697 0 
L 697 3053 
L 147 3053 
L 147 3500 
L 697 3500 
L 697 3744 
Q 697 4328 969 4595 
Q 1241 4863 1831 4863 
L 2375 4863 
z
" transform="scale(0.015625)"/>
       <path id="DejaVuSans-6e" d="M 3513 2113 
L 3513 0 
L 2938 0 
L 2938 2094 
Q 2938 2591 2744 2837 
Q 2550 3084 2163 3084 
Q 1697 3084 1428 2787 
Q 1159 2491 1159 1978 
L 1159 0 
L 581 0 
L 581 3500 
L 1159 3500 
L 1159 2956 
Q 1366 3272 1645 3428 
Q 1925 3584 2291 3584 
Q 2894 3584 3203 3211 
Q 3513 2838 3513 2113 
z
" transform="scale(0.015625)"/>
       <path id="DejaVuSans-63" d="M 3122 3366 
L 3122 2828 
Q 2878 2963 2633 3030 
Q 2388 3097 2138 3097 
Q 1578 3097 1268 2742 
Q 959 2388 959 1747 
Q 959 1106 1268 751 
Q 1578 397 2138 397 
Q 2388 397 2633 464 
Q 2878 531 3122 666 
L 3122 134 
Q 2881 22 2623 -34 
Q 2366 -91 2075 -91 
Q 1284 -91 818 406 
Q 353 903 353 1747 
Q 353 2603 823 3093 
Q 1294 3584 2113 3584 
Q 2378 3584 2631 3529 
Q 2884 3475 3122 3366 
z
" transform="scale(0.015625)"/>
       <path id="DejaVuSans-29" d="M 513 4856 
L 1013 4856 
Q 1481 4119 1714 3412 
Q 1947 2706 1947 2009 
Q 1947 1309 1714 600 
Q 1481 -109 1013 -844 
L 513 -844 
Q 928 -128 1133 580 
Q 1338 1288 1338 2009 
Q 1338 2731 1133 3434 
Q 928 4138 513 4856 
z
" transform="scale(0.015625)"/>
      </defs>
      <use xlink:href="#DejaVuSans-45"/>
      <use xlink:href="#DejaVuSans-72" transform="translate(63.183594 0)"/>
      <use xlink:href="#DejaVuSans-72" transform="translate(102.546875 0)"/>
      <use xlink:href="#DejaVuSans-6f" transform="translate(141.410156 0)"/>
      <use xlink:href="#DejaVuSans-72" transform="translate(202.591797 0)"/>
      <use xlink:href="#DejaVuSans-20" transform="translate(243.705078 0)"/>
      <use xlink:href="#DejaVuSans-28" transform="translate(275.492188 0)"/>
      <use xlink:href="#DejaVuSans-41" transform="translate(314.505859 0)"/>
      <use xlink:href="#DejaVuSans-62" transform="translate(382.914062 0)"/>
      <use xlink:href="#DejaVuSans-73" transform="translate(446.390625 0)"/>
      <use xlink:href="#DejaVuSans-6f" transform="translate(498.490234 0)"/>
      <use xlink:href="#DejaVuSans-6c" transform="translate(559.671875 0)"/>
      <use xlink:href="#DejaVuSans-75" transform="translate(587.455078 0)"/>
      <use xlink:href="#DejaVuSans-74" transform="translate(650.833984 0)"/>
      <use xlink:href="#DejaVuSans-65" transform="translate(690.042969 0)"/>
      <use xlink:href="#DejaVuSans-20" transform="translate(751.566406 0)"/>
      <use xlink:href="#DejaVuSans-44" transform="translate(783.353516 0)"/>
      <use xlink:href="#DejaVuSans-69" transform="translate(860.355469 0)"/>
      <use xlink:href="#DejaVuSans-66" transform="translate(888.138672 0)"/>
      <use xlink:href="#DejaVuSans-66" transform="translate(923.34375 0)"/>
      <use xlink:href="#DejaVuSans-65" transform="translate(958.548828 0)"/>
      <use xlink:href="#DejaVuSans-72" transform="translate(1020.072266 0)"/>
      <use xlink:href="#DejaVuSans-65" transform="translate(1058.935547 0)"/>
      <use xlink:href="#DejaVuSans-6e" transform="translate(1120.458984 0)"/>
      <use xlink:href="#DejaVuSans-63" transform="translate(1183.837891 0)"/>
      <use xlink:href="#DejaVuSans-65" transform="translate(1238.818359 0)"/>
      <use xlink:href="#DejaVuSans-29" transform="translate(1300.341797 0)"/>
     </g>
    </g>
   </g>
   <g id="line2d_29">
    <path d="M 86.989886 355.357812 
L 594.262614 355.357811 
L 594.262614 355.357811 
" clip-path="url(#p0c627f0304)" style="fill: none; stroke: #1f77b4; stroke-width: 1.5; stroke-linecap: square"/>
   </g>
   <g id="line2d_30">
    <path d="M 86.989886 355.357812 
L 301.954236 355.293985 
L 301.954744 355.186233 
L 301.965904 355.357504 
L 302.064822 355.265473 
L 302.173886 355.357311 
L 302.0912 355.221967 
L 302.175915 355.326036 
L 302.233744 355.185778 
L 302.242368 355.357608 
L 302.287008 355.321122 
L 302.393028 355.357318 
L 302.332663 355.175241 
L 302.397086 355.343097 
L 302.436146 355.142833 
L 302.40571 355.357775 
L 302.508179 355.330907 
L 302.614199 355.357559 
L 302.568545 355.139008 
L 302.617243 355.342933 
L 302.641592 355.154665 
L 302.62891 355.357567 
L 302.728336 355.283217 
L 302.754207 355.35753 
L 302.788702 355.157787 
L 302.838922 355.338084 
L 302.939362 355.147959 
L 302.876967 355.357644 
L 302.949507 355.169648 
L 303.032193 355.357705 
L 303.0606 355.321106 
L 303.12401 355.168217 
L 303.080891 355.357734 
L 303.171693 355.210726 
L 303.265032 355.357 
L 303.217855 355.182705 
L 303.283801 355.324115 
L 303.382719 355.129956 
L 303.35837 355.357403 
L 303.394386 355.152436 
L 303.434968 355.35771 
L 303.505987 355.357139 
L 303.562801 355.143631 
L 303.617587 355.25078 
L 303.694693 355.356881 
L 303.640414 355.094054 
L 303.729187 355.342574 
L 303.780929 355.126151 
L 303.734767 355.357517 
L 303.840787 355.3085 
L 303.915864 355.357789 
L 303.882891 355.145195 
L 303.950866 355.331005 
L 304.019855 355.153513 
L 303.955938 355.357462 
L 304.061959 355.276345 
L 304.164428 355.356495 
L 304.136021 355.102502 
L 304.168993 355.297342 
L 304.254723 355.060031 
L 304.175588 355.357011 
L 304.280086 355.300752 
L 304.28313 355.08938 
L 304.382556 355.357536 
L 304.391179 355.257888 
L 304.499736 355.355894 
L 304.412992 355.088066 
L 304.50278 355.308498 
L 304.591045 355.084437 
L 304.578871 355.357676 
L 304.61438 355.217874 
L 304.635685 355.357693 
L 304.651411 355.10001 
L 304.724965 355.232582 
L 304.788375 355.060042 
L 304.73156 355.357152 
L 304.833522 355.343648 
L 304.925339 355.356165 
L 304.917729 355.024618 
L 304.932948 355.310825 
L 304.954253 355.126908 
L 305.043533 355.35775 
L 305.044041 355.245785 
L 305.11303 355.052168 
L 305.057737 355.356949 
L 305.154119 355.351584 
L 305.199266 355.071639 
L 305.155134 355.357417 
L 305.266734 355.316363 
L 305.375798 355.355749 
L 305.363623 355.063599 
L 305.37732 355.344801 
L 305.404712 355.024067 
L 305.413843 355.357653 
L 305.48892 355.117641 
L 305.594433 355.357119 
L 305.58378 355.08323 
L 305.600013 355.270538 
L 305.639073 355.070596 
L 305.638565 355.357026 
L 305.710598 355.224456 
L 305.781617 355.35737 
L 305.7735 355.044354 
L 305.820677 355.356853 
L 305.921624 354.901125 
L 305.885101 355.357486 
L 305.932277 355.083253 
L 305.99873 355.357762 
L 306.022572 354.969016 
L 306.04337 355.231838 
L 306.046921 355.007511 
L 306.063661 355.357632 
L 306.153956 355.127838 
L 306.185407 355.356204 
L 306.164608 354.895842 
L 306.265556 355.344415 
L 306.376141 354.950879 
L 306.336574 355.356321 
L 306.376649 355.309594 
L 306.417231 355.357355 
L 306.463393 354.959207 
L 306.47506 355.288259 
L 306.521222 354.97223 
L 306.529845 355.356499 
L 306.586153 355.151257 
L 306.651084 355.355829 
L 306.614053 354.859682 
L 306.697246 355.3524 
L 306.716015 354.897299 
L 306.702319 355.357371 
L 306.809353 355.17982 
L 306.918924 355.35718 
L 306.837253 354.853052 
L 306.919939 355.147021 
L 307.01277 354.879592 
L 307.011755 355.356728 
L 307.029003 355.234948 
L 307.047772 355.357091 
L 307.03509 354.886585 
L 307.137052 355.349206 
L 307.194881 354.88036 
L 307.214158 355.357133 
L 307.248145 355.213198 
L 307.345034 355.356196 
L 307.335903 354.826899 
L 307.359238 355.301001 
L 307.436851 354.937494 
L 307.414531 355.357186 
L 307.470331 355.250605 
L 307.535769 355.353679 
L 307.553017 354.864239 
L 307.580917 355.311476 
L 307.62302 354.824386 
L 307.593091 355.357314 
L 307.69201 355.18947 
L 307.747302 355.356529 
L 307.754404 354.881968 
L 307.802595 355.17351 
L 307.903035 355.355954 
L 307.804117 354.874159 
L 307.907601 355.23196 
L 307.95427 354.83417 
L 307.923326 355.356029 
L 308.018187 355.218056 
L 308.055725 355.357728 
L 308.120149 354.855197 
L 308.127758 355.291811 
L 308.193703 354.790113 
L 308.144498 355.35632 
L 308.238343 355.336143 
L 308.259142 355.35247 
L 308.241894 354.904277 
L 308.2632 355.052327 
L 308.36364 354.732823 
L 308.319507 355.356578 
L 308.373278 355.029879 
L 308.473211 355.352678 
L 308.406251 354.831396 
L 308.484371 355.225362 
L 308.565535 355.354969 
L 308.513793 354.861492 
L 308.57771 355.170521 
L 308.587348 354.816807 
L 308.669019 355.357088 
L 308.688295 355.308395 
L 308.75627 354.8082 
L 308.72837 355.35759 
L 308.798881 355.191057 
L 308.820186 355.356683 
L 308.878523 354.887537 
L 308.909467 355.345982 
L 308.933816 355.356939 
L 309.02056 354.854631 
L 309.077374 355.356517 
L 309.03527 354.787121 
L 309.131652 355.223904 
L 309.133174 354.669892 
L 309.213324 355.357555 
L 309.242745 355.208072 
L 309.345215 354.736336 
L 309.246296 355.357006 
L 309.352824 354.910475 
L 309.451235 355.356842 
L 309.454786 354.563857 
L 309.463917 355.280514 
L 309.543051 354.655338 
L 309.526819 355.35733 
L 309.57501 355.188882 
L 309.650086 354.618511 
L 309.576024 355.356369 
L 309.683059 355.102988 
L 309.784514 355.357539 
L 309.733279 354.494966 
L 309.794152 355.275359 
L 309.865678 354.382277 
L 309.805312 355.353646 
L 309.905245 355.127725 
L 310.004163 355.355506 
L 309.934667 354.459492 
L 310.016338 355.193596 
L 310.0346 354.654218 
L 310.085327 355.353249 
L 310.127431 354.875822 
L 310.211638 355.355051 
L 310.129967 354.54337 
L 310.238524 355.193537 
L 310.254249 355.333136 
L 310.246133 354.80403 
L 310.2578 355.090104 
L 310.265409 354.553686 
L 310.261351 355.357784 
L 310.368386 355.31151 
L 310.374473 354.508622 
L 310.392228 355.352454 
L 310.479986 354.832008 
L 310.523612 355.355601 
L 310.560135 354.419536 
L 310.591079 355.296938 
L 310.611877 354.57845 
L 310.694563 355.356465 
L 310.702172 354.772819 
L 310.792467 355.356273 
L 310.779785 354.398742 
L 310.813772 355.220597 
L 310.822903 354.333741 
L 310.854354 355.355555 
L 310.924865 354.861443 
L 310.925372 355.345369 
L 310.979143 354.008796 
L 311.035958 355.327548 
L 311.121687 354.424177 
L 311.046104 355.357154 
L 311.147051 354.926824 
L 311.223649 355.35685 
L 311.212997 354.320737 
L 311.258651 355.166264 
L 311.308364 354.330141 
L 311.324597 355.348752 
L 311.369744 355.108952 
L 311.41895 355.357812 
L 311.411848 354.350882 
L 311.479823 355.081884 
L 311.576205 354.264229 
L 311.585843 355.355717 
L 311.590408 355.281395 
L 311.637585 354.480659 
L 311.669543 355.356374 
L 311.701501 355.198549 
L 311.789767 355.357326 
L 311.756287 354.307629 
L 311.799912 355.022363 
L 311.870423 354.277293 
L 311.877525 355.355387 
L 311.910498 354.703789 
L 312.017026 355.355491 
L 311.922673 354.22435 
L 312.022098 355.070074 
L 312.072318 355.356631 
L 312.078406 354.371563 
L 312.133698 355.345758 
L 312.134206 355.35064 
L 312.153989 354.484771 
L 312.167686 355.211737 
L 312.242255 354.007461 
L 312.188991 355.357808 
L 312.278271 355.045701 
L 312.372117 355.351213 
L 312.315302 354.316348 
L 312.38835 355.022926 
L 312.394437 354.154682 
L 312.484732 355.351176 
L 312.498936 354.684521 
L 312.529372 355.356086 
L 312.548648 354.274292 
L 312.610029 355.344554 
L 312.648074 354.32137 
L 312.651118 355.357308 
L 312.722136 354.678271 
L 312.788082 355.357171 
L 312.756123 354.352808 
L 312.832722 355.285964 
L 312.861636 354.342043 
L 312.889536 355.352235 
L 312.943815 355.196275 
L 313.044255 353.944576 
L 313.001137 355.357343 
L 313.054908 354.623375 
L 313.092953 355.356597 
L 313.105128 353.981471 
L 313.166001 355.289997 
L 313.201002 354.048102 
L 313.239555 355.357356 
L 313.277093 355.113978 
L 313.356735 353.834353 
L 313.282673 355.357572 
L 313.388186 354.852609 
L 313.487105 355.357052 
L 313.456161 353.471716 
L 313.499279 354.904115 
L 313.53631 355.353026 
L 313.559645 353.525353 
L 313.609358 355.333318 
L 313.677332 353.621636 
L 313.646389 355.354929 
L 313.720958 354.102433 
L 313.787918 353.59915 
L 313.741756 355.351583 
L 313.79502 354.685175 
L 313.844226 353.810913 
L 313.90662 355.353872 
L 314.008075 353.756999 
L 314.019235 354.174027 
L 314.124241 355.353098 
L 314.035975 353.562256 
L 314.130328 355.161618 
L 314.192215 353.421098 
L 314.237363 355.345979 
L 314.242435 354.657313 
L 314.28809 355.352755 
L 314.279466 353.446871 
L 314.353528 355.142489 
L 314.422518 355.350155 
L 314.416938 353.589244 
L 314.460056 355.184525 
L 314.534625 353.502261 
L 314.47984 355.356339 
L 314.571149 354.795399 
L 314.61376 353.478379 
L 314.627456 355.347629 
L 314.681227 354.304923 
L 314.756304 355.355421 
L 314.736013 353.55824 
L 314.79232 354.880219 
L 314.793335 353.17971 
L 314.828844 355.352814 
L 314.903413 354.558409 
L 314.923704 353.366056 
L 314.972402 355.350708 
L 315.013999 354.51942 
L 315.055595 355.356545 
L 315.028202 353.641683 
L 315.125092 354.682714 
L 315.183935 355.356541 
L 315.169732 353.507778 
L 315.234663 355.283027 
L 315.278796 353.424091 
L 315.252925 355.355719 
L 315.345756 355.092597 
L 315.41018 353.486941 
L 315.365032 355.353781 
L 315.456341 355.181883 
L 315.561347 355.355169 
L 315.530403 353.130081 
L 315.564391 354.560024 
L 315.6557 353.042916 
L 315.565913 355.346313 
L 315.674976 355.247341 
L 315.677006 355.350804 
L 315.68918 353.734921 
L 315.691209 355.253045 
L 315.71708 353.262677 
L 315.76172 355.353721 
L 315.802302 354.884979 
L 315.861146 353.071534 
L 315.824115 355.351935 
L 315.911873 354.906303 
L 315.947382 355.342903 
L 315.963615 353.264881 
L 316.020937 354.930669 
L 316.09297 352.629418 
L 316.124421 355.357265 
L 316.132537 353.77002 
L 316.145219 355.350856 
L 316.190874 352.525519 
L 316.244138 354.634365 
L 316.270009 352.477495 
L 316.317692 355.35722 
L 316.355231 353.889586 
L 316.404436 355.35331 
L 316.37958 353.062035 
L 316.466323 354.946949 
L 316.545965 352.613266 
L 316.476469 355.351152 
L 316.576909 355.283479 
L 316.577416 355.284742 
L 316.577924 355.256933 
L 316.594156 352.617031 
L 316.651478 355.347139 
L 316.689017 354.902898 
L 316.742788 355.351356 
L 316.760542 352.188326 
L 316.80011 355.282942 
L 316.815328 352.686135 
L 316.90055 355.351582 
L 316.911203 355.080532 
L 316.981206 355.355187 
L 317.011643 352.117998 
L 317.019252 354.902235 
L 317.027876 351.991414 
L 317.099908 355.352742 
L 317.130345 354.815634 
L 317.203392 352.031701 
L 317.154187 355.344681 
L 317.222161 354.618037 
L 317.286078 355.347024 
L 317.24854 352.400583 
L 317.333254 354.770672 
L 317.396664 355.346622 
L 317.359125 351.345117 
L 317.442318 355.252878 
L 317.549353 352.192941 
L 317.54428 355.351346 
L 317.553918 353.80609 
L 317.625951 355.334483 
L 317.58892 351.059878 
L 317.665011 354.448328 
L 317.676171 355.357059 
L 317.686824 352.129085 
L 317.739581 355.274682 
L 317.835455 351.043248 
L 317.76393 355.349538 
L 317.850674 355.095024 
L 317.916112 352.260839 
L 317.900386 355.35711 
L 317.961766 353.14469 
L 318.069816 355.347662 
L 317.991188 352.272811 
L 318.072859 354.217402 
L 318.113441 355.354325 
L 318.131703 351.811384 
L 318.17888 354.184758 
L 318.270189 351.48009 
L 318.271203 355.331273 
L 318.289973 351.736138 
L 318.377224 355.356827 
L 318.358962 351.353861 
L 318.401066 354.909338 
L 318.474113 351.316629 
L 318.490346 355.357431 
L 318.512158 354.121102 
L 318.58622 355.352476 
L 318.615642 351.212018 
L 318.62173 355.179762 
L 318.647093 350.502533 
L 318.67195 355.354898 
L 318.732823 353.967591 
L 318.73333 355.350941 
L 318.74449 351.788118 
L 318.843408 353.049726 
L 318.865221 355.354889 
L 318.860656 350.781535 
L 318.956023 355.163853 
L 318.988489 350.67113 
L 318.977329 355.355087 
L 319.067116 355.173064 
L 319.12038 350.824649 
L 319.127989 355.343041 
L 319.178716 354.794612 
L 319.179223 355.332482 
L 319.211182 350.690596 
L 319.288795 354.4834 
L 319.355755 350.961661 
L 319.333942 355.336594 
L 319.400395 352.567037 
L 319.460253 355.350478 
L 319.417135 351.494516 
L 319.511488 355.14613 
L 319.571346 351.04186 
L 319.516053 355.355831 
L 319.622581 354.415025 
L 319.65809 355.343811 
L 319.687512 351.247871 
L 319.732659 354.635304 
L 319.755994 351.036655 
L 319.748385 355.347703 
L 319.843245 354.879746 
L 319.859985 355.356308 
L 319.887378 351.030201 
L 319.951294 354.22992 
L 320.01724 350.098656 
L 320.013689 355.33981 
L 320.062894 351.458802 
L 320.1121 355.326754 
L 320.125289 349.787183 
L 320.174495 355.195994 
L 320.242977 349.07225 
L 320.282037 355.319211 
L 320.286602 351.365494 
L 320.344939 355.336028 
L 320.380448 349.589656 
L 320.398202 354.464766 
L 320.498135 348.455708 
L 320.453495 355.33666 
L 320.508788 355.048879 
L 320.594517 348.678861 
L 320.519441 355.329317 
L 320.619881 354.834161 
L 320.665028 355.343462 
L 320.646259 350.151529 
L 320.728945 353.208216 
L 320.753294 347.562714 
L 320.743148 355.351552 
L 320.840545 352.026296 
L 320.882141 355.351 
L 320.883663 349.852011 
L 320.951638 354.298469 
L 321.028744 347.479244 
L 320.966349 355.357638 
L 321.062224 354.576433 
L 321.078964 350.170172 
L 321.079978 355.243034 
L 321.108386 348.376931 
L 321.177882 355.356129 
L 321.191071 350.065292 
L 321.217957 355.296032 
L 321.238248 348.004379 
L 321.302164 354.853317 
L 321.367095 348.421807 
L 321.412242 355.350401 
L 321.413257 354.674189 
L 321.506088 348.369644 
L 321.415793 355.356477 
L 321.52435 353.18515 
L 321.591817 355.320027 
L 321.603992 346.793841 
L 321.63595 354.76588 
L 321.733854 346.403409 
L 321.684141 355.345514 
L 321.747043 352.970298 
L 321.851542 355.357681 
L 321.771392 346.012432 
L 321.857629 354.917455 
L 321.874876 346.151317 
L 321.901762 355.34487 
L 321.969229 350.444463 
L 322.025536 355.354827 
L 322.056987 348.20699 
L 322.082858 352.625419 
L 322.157935 347.236937 
L 322.174675 355.342775 
L 322.192429 353.863336 
L 322.247215 355.355102 
L 322.284753 347.129281 
L 322.297435 353.889881 
L 322.340553 347.18795 
L 322.380121 355.347906 
L 322.408528 351.4486 
L 322.451646 355.34411 
L 322.43237 348.655222 
L 322.520128 355.11383 
L 322.539405 347.983438 
L 322.575928 355.355412 
L 322.631221 353.155282 
L 322.640352 347.106258 
L 322.642381 355.350805 
L 322.738256 351.950981 
L 322.806738 355.353847 
L 322.795578 347.350864 
L 322.848334 353.810419 
L 322.876234 346.193217 
L 322.903627 355.345275 
L 322.95892 352.539208 
L 322.968051 355.351283 
L 322.996458 345.891504 
L 323.070013 352.772971 
L 323.111102 346.375997 
L 323.091319 355.354269 
L 323.180599 354.285049 
L 323.183135 347.208501 
L 323.284083 355.3456 
L 323.291692 353.106677 
L 323.363217 355.349608 
L 323.327201 346.646654 
L 323.400756 353.251912 
L 323.504747 345.984672 
L 323.445903 355.350633 
L 323.511341 353.274666 
L 323.60265 355.332887 
L 323.603158 344.814168 
L 323.621927 354.165639 
L 323.652363 345.264742 
L 323.690409 355.312243 
L 323.73302 349.930979 
L 323.781211 355.357459 
L 323.841069 341.20116 
L 323.844113 351.462298 
L 323.952162 355.352489 
L 323.947089 341.582769 
L 323.953177 350.496946 
L 324.062241 339.432955 
L 324.030282 355.309752 
L 324.063255 352.146999 
L 324.155072 355.269499 
L 324.071879 342.782073 
L 324.172319 348.814762 
L 324.243337 344.276238 
L 324.264643 355.338702 
L 324.280875 353.100847 
L 324.341241 355.355996 
L 324.347836 343.517791 
L 324.388925 353.781748 
L 324.475669 343.651645 
L 324.428492 355.351778 
L 324.500018 352.983398 
L 324.549731 343.001722 
L 324.5406 355.348648 
L 324.611111 348.842305 
L 324.70242 355.317275 
L 324.65778 341.006842 
L 324.722204 348.84548 
L 324.822644 340.011484 
L 324.817064 355.303934 
L 324.829238 351.216225 
L 324.89214 355.274611 
L 324.89772 337.276463 
L 324.940839 354.702539 
L 324.948955 341.480925 
L 324.993088 355.33963 
L 325.052439 341.747765 
L 325.059541 355.350157 
L 325.060555 341.354792 
L 325.163532 349.789491 
L 325.271581 340.221937 
L 325.265494 355.353158 
L 325.27361 343.213823 
L 325.286292 355.319539 
L 325.285785 342.8526 
L 325.384703 349.95054 
L 325.436952 355.311262 
L 325.39637 339.218252 
L 325.495289 352.193947 
L 325.5379 342.247006 
L 325.505942 355.333994 
L 325.606382 347.330747 
L 325.609425 355.347246 
L 325.619064 340.264444 
L 325.717475 351.211463 
L 325.795088 338.25395 
L 325.759578 355.253533 
L 325.82806 352.625194 
L 325.935095 339.868696 
L 325.831104 355.318232 
L 325.938646 352.847427 
L 325.939153 352.849847 
L 326.002563 355.110417 
L 325.950821 335.674122 
L 326.045681 352.287558 
L 326.104017 339.909815 
L 326.108583 355.343159 
L 326.156774 346.692049 
L 326.216125 355.328017 
L 326.213588 337.875117 
L 326.267359 353.655199 
L 326.348523 332.618563 
L 326.296781 355.343677 
L 326.378452 347.381227 
L 326.475849 355.277993 
L 326.449471 336.58195 
L 326.489038 346.188532 
L 326.576289 339.641934 
L 326.544331 355.291431 
L 326.598609 345.221888 
L 326.643757 355.301866 
L 326.672671 338.357528 
L 326.709702 355.226677 
L 326.74369 339.132717 
L 326.758908 355.347373 
L 326.820795 355.056798 
L 326.845652 335.086224 
L 326.890292 355.340646 
L 326.931888 354.643674 
L 326.980079 341.188234 
L 326.940004 355.352457 
L 327.043488 351.443421 
L 327.097767 355.332241 
L 327.05617 335.513029 
L 327.154581 354.36327 
L 327.172336 331.619475 
L 327.263645 355.351007 
L 327.266689 345.015599 
L 327.374738 355.282659 
L 327.286472 327.879206 
L 327.378796 354.446089 
L 327.410247 355.342534 
L 327.400102 332.815049 
L 327.473656 351.699252 
L 327.540617 327.179315 
L 327.560908 355.326422 
L 327.584749 344.094846 
L 327.665913 355.329174 
L 327.650188 327.752292 
L 327.69635 353.091556 
L 327.742004 328.573198 
L 327.78005 355.247417 
L 327.807443 341.938786 
L 327.898245 355.34045 
L 327.89165 329.546261 
L 327.918535 345.299876 
L 327.940348 326.919502 
L 328.026078 355.28355 
L 328.028614 343.986236 
L 328.122967 355.296883 
L 328.069703 328.27027 
L 328.139707 354.765446 
L 328.154925 322.621784 
L 328.163549 355.32565 
L 328.2508 350.055793 
L 328.283773 324.638698 
L 328.356313 355.237756 
L 328.361385 350.954781 
L 328.396895 355.233796 
L 328.388271 327.751251 
L 328.471464 347.855952 
L 328.518133 321.558936 
L 328.492262 355.240425 
L 328.573933 346.41408 
L 328.641401 355.349173 
L 328.618573 326.590116 
L 328.684012 350.400612 
L 328.740826 324.309659 
L 328.719013 355.339321 
L 328.794597 354.444485 
L 328.833657 323.864116 
L 328.806772 355.305569 
L 328.907212 342.683179 
L 328.910763 355.307026 
L 328.991419 318.870672 
L 329.018305 351.0086 
L 329.089831 323.18305 
L 329.102512 355.316277 
L 329.129398 347.251927 
L 329.156791 355.35516 
L 329.145631 319.539766 
L 329.238969 353.114536 
L 329.278536 323.873659 
L 329.285638 355.333155 
L 329.350062 349.179221 
L 329.403833 324.695692 
L 329.391658 355.27705 
L 329.459126 350.591234 
L 329.559566 355.319135 
L 329.496664 326.503454 
L 329.566668 355.190983 
L 329.650875 328.590981 
L 329.600148 355.282079 
L 329.677761 343.211481 
L 329.78581 316.40249 
L 329.755881 355.310715 
L 329.786317 341.458891 
L 329.860887 355.353053 
L 329.826899 318.630811 
L 329.897918 353.655685 
L 329.982632 355.355383 
L 330.010532 323.535685 
L 330.093725 355.339104 
L 330.047563 316.063128 
L 330.121625 350.364611 
L 330.19518 316.635844 
L 330.224602 355.347432 
L 330.232211 341.338137 
L 330.294606 355.288857 
L 330.307795 312.168966 
L 330.343304 353.999662 
L 330.389973 317.499517 
L 330.423961 355.311107 
L 330.454397 349.73503 
L 330.511212 315.395941 
L 330.483312 355.292982 
L 330.56549 346.308246 
L 330.609115 355.341845 
L 330.673539 316.534522 
L 330.676076 341.236467 
L 330.776516 355.348758 
L 330.711077 321.455965 
L 330.786154 354.841261 
L 330.804416 314.570004 
L 330.813547 355.31909 
L 330.897247 344.642405 
L 330.98044 314.406135 
L 330.910943 355.239566 
L 331.009354 330.184907 
L 331.087475 355.208665 
L 331.022036 294.204554 
L 331.119433 333.773105 
L 331.192987 294.494816 
L 331.227989 355.292141 
L 331.230018 355.054987 
L 331.243208 299.540223 
L 331.304588 355.126116 
L 331.342633 324.365092 
L 331.42887 355.203987 
L 331.427348 303.971101 
L 331.453726 339.954924 
L 331.483148 300.158223 
L 331.513077 355.319836 
L 331.565326 335.724957 
L 331.605401 355.256287 
L 331.589168 290.081375 
L 331.676927 354.188202 
L 331.738814 303.845141 
L 331.786498 355.259807 
L 331.78802 350.802329 
L 331.813383 355.321087 
L 331.831138 304.92959 
L 331.893533 352.931383 
L 331.923462 294.743438 
L 332.003104 354.672096 
L 332.004625 334.897459 
L 332.017307 355.329019 
L 332.064991 279.369611 
L 332.115718 348.437257 
L 332.124849 295.822509 
L 332.138038 355.325435 
L 332.226811 326.692393 
L 332.282104 355.297945 
L 332.238986 292.94704 
L 332.337904 335.353411 
L 332.420083 355.243247 
L 332.389646 301.938485 
L 332.44849 347.834447 
L 332.505305 284.97932 
L 332.556539 355.184536 
L 332.559583 343.362858 
L 332.649878 355.269803 
L 332.653429 296.136367 
L 332.667632 338.230528 
L 332.714301 292.099676 
L 332.774667 354.940258 
L 332.777711 299.306955 
L 332.783291 355.295731 
L 332.88576 287.920718 
L 332.889311 352.094403 
L 332.950691 291.43596 
L 332.94156 355.287331 
L 333.000404 349.271877 
L 333.020695 296.57176 
L 333.021202 355.310387 
L 333.111497 340.212222 
L 333.158166 355.023561 
L 333.121135 290.777275 
L 333.219546 337.215652 
L 333.309841 287.554984 
L 333.29513 355.264565 
L 333.330639 330.562959 
L 333.346872 287.548999 
L 333.441732 355.256003 
L 333.544709 278.624524 
L 333.516301 355.306388 
L 333.552825 333.196745 
L 333.567029 355.006334 
L 333.63754 271.145027 
L 333.663411 351.561374 
L 333.717689 286.37407 
L 333.712109 355.095129 
L 333.774504 328.940406 
L 333.794795 355.32767 
L 333.853638 277.988133 
L 333.885089 336.042892 
L 333.909946 293.908653 
L 333.973355 355.188991 
L 333.996182 316.65545 
L 334.0393 355.293651 
L 334.082419 290.697813 
L 334.107782 354.690524 
L 334.174235 289.399094 
L 334.14177 355.334084 
L 334.218875 340.463707 
L 334.241703 355.236524 
L 334.25337 269.317052 
L 334.328954 344.160341 
L 334.427365 285.224733 
L 334.430916 355.286222 
L 334.440047 344.516879 
L 334.496354 266.239719 
L 334.46744 355.171315 
L 334.550125 318.791383 
L 334.581576 355.343828 
L 334.570416 254.934592 
L 334.661218 319.120682 
L 334.720062 266.508641 
L 334.721584 354.754954 
L 334.771804 331.469399 
L 334.810864 355.246188 
L 334.821517 252.378967 
L 334.882389 345.115794 
L 334.976742 240.333872 
L 334.958988 355.273586 
L 334.993482 333.721056 
L 335.001599 355.222765 
L 335.057399 227.116797 
L 335.103053 331.147214 
L 335.15581 238.297873 
L 335.106097 354.462468 
L 335.214146 332.70028 
L 335.303427 355.281526 
L 335.239003 235.290286 
L 335.323718 342.923301 
L 335.324225 265.709683 
L 335.350096 355.163318 
L 335.434811 320.353212 
L 335.534236 355.248068 
L 335.454087 188.815388 
L 335.545903 349.915806 
L 335.575833 232.758083 
L 335.574311 355.043551 
L 335.656996 301.263231 
L 335.747798 355.313304 
L 335.672722 223.183599 
L 335.768089 348.755695 
L 335.789395 234.926808 
L 335.850775 354.83622 
L 335.880197 297.456686 
L 335.916721 354.63625 
L 335.966433 226.00641 
L 335.991797 346.834656 
L 336.094774 227.432563 
L 336.026292 355.341458 
L 336.103397 337.283403 
L 336.152096 355.193396 
L 336.165792 220.997524 
L 336.209418 286.499336 
L 336.231738 228.265354 
L 336.290074 354.774031 
L 336.318481 282.291663 
L 336.33928 355.310863 
L 336.374281 238.715136 
L 336.429574 320.299427 
L 336.439213 355.032178 
L 336.485374 229.197038 
L 336.541175 333.509909 
L 336.631977 207.011854 
L 336.588858 354.665999 
L 336.65176 310.315748 
L 336.7522 355.190208 
L 336.669515 214.065413 
L 336.762346 309.209438 
L 336.81561 201.658574 
L 336.791768 355.170526 
L 336.865322 322.481077 
L 336.973879 354.933179 
L 336.873439 233.425183 
L 336.976415 347.999938 
L 337.054028 196.294018 
L 337.026128 355.318766 
L 337.087508 341.375439 
L 337.147874 216.146521 
L 337.118452 355.127634 
L 337.198601 330.454349 
L 337.270127 355.306498 
L 337.240705 175.533252 
L 337.306651 277.975034 
L 337.356363 204.75291 
L 337.346218 355.30875 
L 337.417236 296.868181 
L 337.482675 355.310689 
L 337.466949 240.513442 
L 337.527822 317.689671 
L 337.553186 209.875438 
L 337.636886 355.009148 
L 337.638915 284.432541 
L 337.682033 355.194932 
L 337.67696 207.095133 
L 337.750515 325.319504 
L 337.80175 205.167571 
L 337.822041 355.333111 
L 337.861101 331.002256 
L 337.959005 355.20419 
L 337.945308 202.603271 
L 337.965599 312.021579 
L 338.073649 197.963935 
L 338.001616 355.278829 
L 338.076692 312.518131 
L 338.077707 354.520808 
L 338.17764 183.549725 
L 338.185249 315.421792 
L 338.292791 186.939008 
L 338.245107 354.980324 
L 338.296342 215.056087 
L 338.305473 353.377116 
L 338.299893 139.679899 
L 338.407435 335.341006 
L 338.424175 136.026032 
L 338.447509 355.308364 
L 338.519035 274.403058 
L 338.591068 355.254933 
L 338.606286 166.676181 
L 338.630128 312.990826 
L 338.638751 354.909681 
L 338.699117 139.987858 
L 338.740714 306.705602 
L 338.807674 122.62158 
L 338.745279 354.370106 
L 338.850792 246.8626 
L 338.916737 354.793838 
L 338.919274 109.682102 
L 338.961885 303.171188 
L 339.025801 77.772358 
L 339.054716 355.117157 
L 339.072978 282.601791 
L 339.156678 355.002808 
L 339.08008 98.82807 
L 339.181027 251.09942 
L 339.181534 101.767993 
L 339.205884 355.239609 
L 339.291613 225.764381 
L 339.351471 354.997694 
L 339.400169 107.415351 
L 339.402706 330.867708 
L 339.43162 100.157932 
L 339.420968 354.801018 
L 339.513799 320.110141 
L 339.577208 355.101066 
L 339.570106 121.140775 
L 339.624384 294.863759 
L 339.724317 62.743965 
L 339.719752 355.082634 
L 339.734463 235.456844 
L 339.795336 354.915748 
L 339.75171 52.957812 
L 339.845556 256.089221 
L 339.917589 355.127688 
L 339.883094 101.431407 
L 339.956649 351.38058 
L 340.040856 64.24906 
L 340.016507 355.232465 
L 340.068249 110.796827 
L 340.103758 353.460508 
L 340.106294 72.197001 
L 340.179849 284.721329 
L 340.23362 355.094898 
L 340.194053 69.464408 
L 340.289928 252.788422 
L 340.352322 90.710968 
L 340.33964 355.236039 
L 340.40102 244.862168 
L 340.49233 63.426679 
L 340.410659 355.355627 
L 340.510592 202.422833 
L 340.613568 355.120742 
L 340.550666 81.159905 
L 340.621685 342.998512 
L 340.623206 225.822502 
L 340.62625 355.357812 
L 340.73227 355.357812 
L 594.262614 355.357812 
L 594.262614 355.357812 
" clip-path="url(#p0c627f0304)" style="fill: none; stroke-dasharray: 5.55,2.4; stroke-dashoffset: 0; stroke: #ff7f0e; stroke-width: 1.5"/>
   </g>
   <g id="patch_3">
    <path d="M 61.62625 370.477812 
L 61.62625 37.837812 
" style="fill: none; stroke: #000000; stroke-width: 0.8; stroke-linejoin: miter; stroke-linecap: square"/>
   </g>
   <g id="patch_4">
    <path d="M 619.62625 370.477812 
L 619.62625 37.837812 
" style="fill: none; stroke: #000000; stroke-width: 0.8; stroke-linejoin: miter; stroke-linecap: square"/>
   </g>
   <g id="patch_5">
    <path d="M 61.62625 370.477812 
L 619.62625 370.477812 
" style="fill: none; stroke: #000000; stroke-width: 0.8; stroke-linejoin: miter; stroke-linecap: square"/>
   </g>
   <g id="patch_6">
    <path d="M 61.62625 37.837812 
L 619.62625 37.837812 
" style="fill: none; stroke: #000000; stroke-width: 0.8; stroke-linejoin: miter; stroke-linecap: square"/>
   </g>
   <g id="text_17">
    <!-- Error Between Custom Hankel Function and Boost Implementation -->
    <g transform="translate(108.222969 17.837812) scale(0.14 -0.14)">
     <defs>
      <path id="DejaVuSans-42" d="M 1259 2228 
L 1259 519 
L 2272 519 
Q 2781 519 3026 730 
Q 3272 941 3272 1375 
Q 3272 1813 3026 2020 
Q 2781 2228 2272 2228 
L 1259 2228 
z
M 1259 4147 
L 1259 2741 
L 2194 2741 
Q 2656 2741 2882 2914 
Q 3109 3088 3109 3444 
Q 3109 3797 2882 3972 
Q 2656 4147 2194 4147 
L 1259 4147 
z
M 628 4666 
L 2241 4666 
Q 2963 4666 3353 4366 
Q 3744 4066 3744 3513 
Q 3744 3084 3544 2831 
Q 3344 2578 2956 2516 
Q 3422 2416 3680 2098 
Q 3938 1781 3938 1306 
Q 3938 681 3513 340 
Q 3088 0 2303 0 
L 628 0 
L 628 4666 
z
" transform="scale(0.015625)"/>
      <path id="DejaVuSans-77" d="M 269 3500 
L 844 3500 
L 1563 769 
L 2278 3500 
L 2956 3500 
L 3675 769 
L 4391 3500 
L 4966 3500 
L 4050 0 
L 3372 0 
L 2619 2869 
L 1863 0 
L 1184 0 
L 269 3500 
z
" transform="scale(0.015625)"/>
      <path id="DejaVuSans-43" d="M 4122 4306 
L 4122 3641 
Q 3803 3938 3442 4084 
Q 3081 4231 2675 4231 
Q 1875 4231 1450 3742 
Q 1025 3253 1025 2328 
Q 1025 1406 1450 917 
Q 1875 428 2675 428 
Q 3081 428 3442 575 
Q 3803 722 4122 1019 
L 4122 359 
Q 3791 134 3420 21 
Q 3050 -91 2638 -91 
Q 1578 -91 968 557 
Q 359 1206 359 2328 
Q 359 3453 968 4101 
Q 1578 4750 2638 4750 
Q 3056 4750 3426 4639 
Q 3797 4528 4122 4306 
z
" transform="scale(0.015625)"/>
      <path id="DejaVuSans-6d" d="M 3328 2828 
Q 3544 3216 3844 3400 
Q 4144 3584 4550 3584 
Q 5097 3584 5394 3201 
Q 5691 2819 5691 2113 
L 5691 0 
L 5113 0 
L 5113 2094 
Q 5113 2597 4934 2840 
Q 4756 3084 4391 3084 
Q 3944 3084 3684 2787 
Q 3425 2491 3425 1978 
L 3425 0 
L 2847 0 
L 2847 2094 
Q 2847 2600 2669 2842 
Q 2491 3084 2119 3084 
Q 1678 3084 1418 2786 
Q 1159 2488 1159 1978 
L 1159 0 
L 581 0 
L 581 3500 
L 1159 3500 
L 1159 2956 
Q 1356 3278 1631 3431 
Q 1906 3584 2284 3584 
Q 2666 3584 2933 3390 
Q 3200 3197 3328 2828 
z
" transform="scale(0.015625)"/>
      <path id="DejaVuSans-48" d="M 628 4666 
L 1259 4666 
L 1259 2753 
L 3553 2753 
L 3553 4666 
L 4184 4666 
L 4184 0 
L 3553 0 
L 3553 2222 
L 1259 2222 
L 1259 0 
L 628 0 
L 628 4666 
z
" transform="scale(0.015625)"/>
      <path id="DejaVuSans-61" d="M 2194 1759 
Q 1497 1759 1228 1600 
Q 959 1441 959 1056 
Q 959 750 1161 570 
Q 1363 391 1709 391 
Q 2188 391 2477 730 
Q 2766 1069 2766 1631 
L 2766 1759 
L 2194 1759 
z
M 3341 1997 
L 3341 0 
L 2766 0 
L 2766 531 
Q 2569 213 2275 61 
Q 1981 -91 1556 -91 
Q 1019 -91 701 211 
Q 384 513 384 1019 
Q 384 1609 779 1909 
Q 1175 2209 1959 2209 
L 2766 2209 
L 2766 2266 
Q 2766 2663 2505 2880 
Q 2244 3097 1772 3097 
Q 1472 3097 1187 3025 
Q 903 2953 641 2809 
L 641 3341 
Q 956 3463 1253 3523 
Q 1550 3584 1831 3584 
Q 2591 3584 2966 3190 
Q 3341 2797 3341 1997 
z
" transform="scale(0.015625)"/>
      <path id="DejaVuSans-6b" d="M 581 4863 
L 1159 4863 
L 1159 1991 
L 2875 3500 
L 3609 3500 
L 1753 1863 
L 3688 0 
L 2938 0 
L 1159 1709 
L 1159 0 
L 581 0 
L 581 4863 
z
" transform="scale(0.015625)"/>
      <path id="DejaVuSans-46" d="M 628 4666 
L 3309 4666 
L 3309 4134 
L 1259 4134 
L 1259 2759 
L 3109 2759 
L 3109 2228 
L 1259 2228 
L 1259 0 
L 628 0 
L 628 4666 
z
" transform="scale(0.015625)"/>
      <path id="DejaVuSans-64" d="M 2906 2969 
L 2906 4863 
L 3481 4863 
L 3481 0 
L 2906 0 
L 2906 525 
Q 2725 213 2448 61 
Q 2172 -91 1784 -91 
Q 1150 -91 751 415 
Q 353 922 353 1747 
Q 353 2572 751 3078 
Q 1150 3584 1784 3584 
Q 2172 3584 2448 3432 
Q 2725 3281 2906 2969 
z
M 947 1747 
Q 947 1113 1208 752 
Q 1469 391 1925 391 
Q 2381 391 2643 752 
Q 2906 1113 2906 1747 
Q 2906 2381 2643 2742 
Q 2381 3103 1925 3103 
Q 1469 3103 1208 2742 
Q 947 2381 947 1747 
z
" transform="scale(0.015625)"/>
      <path id="DejaVuSans-49" d="M 628 4666 
L 1259 4666 
L 1259 0 
L 628 0 
L 628 4666 
z
" transform="scale(0.015625)"/>
      <path id="DejaVuSans-70" d="M 1159 525 
L 1159 -1331 
L 581 -1331 
L 581 3500 
L 1159 3500 
L 1159 2969 
Q 1341 3281 1617 3432 
Q 1894 3584 2278 3584 
Q 2916 3584 3314 3078 
Q 3713 2572 3713 1747 
Q 3713 922 3314 415 
Q 2916 -91 2278 -91 
Q 1894 -91 1617 61 
Q 1341 213 1159 525 
z
M 3116 1747 
Q 3116 2381 2855 2742 
Q 2594 3103 2138 3103 
Q 1681 3103 1420 2742 
Q 1159 2381 1159 1747 
Q 1159 1113 1420 752 
Q 1681 391 2138 391 
Q 2594 391 2855 752 
Q 3116 1113 3116 1747 
z
" transform="scale(0.015625)"/>
     </defs>
     <use xlink:href="#DejaVuSans-45"/>
     <use xlink:href="#DejaVuSans-72" transform="translate(63.183594 0)"/>
     <use xlink:href="#DejaVuSans-72" transform="translate(102.546875 0)"/>
     <use xlink:href="#DejaVuSans-6f" transform="translate(141.410156 0)"/>
     <use xlink:href="#DejaVuSans-72" transform="translate(202.591797 0)"/>
     <use xlink:href="#DejaVuSans-20" transform="translate(243.705078 0)"/>
     <use xlink:href="#DejaVuSans-42" transform="translate(275.492188 0)"/>
     <use xlink:href="#DejaVuSans-65" transform="translate(344.095703 0)"/>
     <use xlink:href="#DejaVuSans-74" transform="translate(405.619141 0)"/>
     <use xlink:href="#DejaVuSans-77" transform="translate(444.828125 0)"/>
     <use xlink:href="#DejaVuSans-65" transform="translate(526.615234 0)"/>
     <use xlink:href="#DejaVuSans-65" transform="translate(588.138672 0)"/>
     <use xlink:href="#DejaVuSans-6e" transform="translate(649.662109 0)"/>
     <use xlink:href="#DejaVuSans-20" transform="translate(713.041016 0)"/>
     <use xlink:href="#DejaVuSans-43" transform="translate(744.828125 0)"/>
     <use xlink:href="#DejaVuSans-75" transform="translate(814.652344 0)"/>
     <use xlink:href="#DejaVuSans-73" transform="translate(878.03125 0)"/>
     <use xlink:href="#DejaVuSans-74" transform="translate(930.130859 0)"/>
     <use xlink:href="#DejaVuSans-6f" transform="translate(969.339844 0)"/>
     <use xlink:href="#DejaVuSans-6d" transform="translate(1030.521484 0)"/>
     <use xlink:href="#DejaVuSans-20" transform="translate(1127.933594 0)"/>
     <use xlink:href="#DejaVuSans-48" transform="translate(1159.720703 0)"/>
     <use xlink:href="#DejaVuSans-61" transform="translate(1234.916016 0)"/>
     <use xlink:href="#DejaVuSans-6e" transform="translate(1296.195312 0)"/>
     <use xlink:href="#DejaVuSans-6b" transform="translate(1359.574219 0)"/>
     <use xlink:href="#DejaVuSans-65" transform="translate(1413.859375 0)"/>
     <use xlink:href="#DejaVuSans-6c" transform="translate(1475.382812 0)"/>
     <use xlink:href="#DejaVuSans-20" transform="translate(1503.166016 0)"/>
     <use xlink:href="#DejaVuSans-46" transform="translate(1534.953125 0)"/>
     <use xlink:href="#DejaVuSans-75" transform="translate(1586.972656 0)"/>
     <use xlink:href="#DejaVuSans-6e" transform="translate(1650.351562 0)"/>
     <use xlink:href="#DejaVuSans-63" transform="translate(1713.730469 0)"/>
     <use xlink:href="#DejaVuSans-74" transform="translate(1768.710938 0)"/>
     <use xlink:href="#DejaVuSans-69" transform="translate(1807.919922 0)"/>
     <use xlink:href="#DejaVuSans-6f" transform="translate(1835.703125 0)"/>
     <use xlink:href="#DejaVuSans-6e" transform="translate(1896.884766 0)"/>
     <use xlink:href="#DejaVuSans-20" transform="translate(1960.263672 0)"/>
     <use xlink:href="#DejaVuSans-61" transform="translate(1992.050781 0)"/>
     <use xlink:href="#DejaVuSans-6e" transform="translate(2053.330078 0)"/>
     <use xlink:href="#DejaVuSans-64" transform="translate(2116.708984 0)"/>
     <use xlink:href="#DejaVuSans-20" transform="translate(2180.185547 0)"/>
     <use xlink:href="#DejaVuSans-42" transform="translate(2211.972656 0)"/>
     <use xlink:href="#DejaVuSans-6f" transform="translate(2280.576172 0)"/>
     <use xlink:href="#DejaVuSans-6f" transform="translate(2341.757812 0)"/>
     <use xlink:href="#DejaVuSans-73" transform="translate(2402.939453 0)"/>
     <use xlink:href="#DejaVuSans-74" transform="translate(2455.039062 0)"/>
     <use xlink:href="#DejaVuSans-20" transform="translate(2494.248047 0)"/>
     <use xlink:href="#DejaVuSans-49" transform="translate(2526.035156 0)"/>
     <use xlink:href="#DejaVuSans-6d" transform="translate(2555.527344 0)"/>
     <use xlink:href="#DejaVuSans-70" transform="translate(2652.939453 0)"/>
     <use xlink:href="#DejaVuSans-6c" transform="translate(2716.416016 0)"/>
     <use xlink:href="#DejaVuSans-65" transform="translate(2744.199219 0)"/>
     <use xlink:href="#DejaVuSans-6d" transform="translate(2805.722656 0)"/>
     <use xlink:href="#DejaVuSans-65" transform="translate(2903.134766 0)"/>
     <use xlink:href="#DejaVuSans-6e" transform="translate(2964.658203 0)"/>
     <use xlink:href="#DejaVuSans-74" transform="translate(3028.037109 0)"/>
     <use xlink:href="#DejaVuSans-61" transform="translate(3067.246094 0)"/>
     <use xlink:href="#DejaVuSans-74" transform="translate(3128.525391 0)"/>
     <use xlink:href="#DejaVuSans-69" transform="translate(3167.734375 0)"/>
     <use xlink:href="#DejaVuSans-6f" transform="translate(3195.517578 0)"/>
     <use xlink:href="#DejaVuSans-6e" transform="translate(3256.699219 0)"/>
    </g>
   </g>
   <g id="legend_1">
    <g id="patch_7">
     <path d="M 490.65125 78.929687 
L 611.92625 78.929687 
Q 614.12625 78.929687 614.12625 76.729687 
L 614.12625 45.537812 
Q 614.12625 43.337812 611.92625 43.337812 
L 490.65125 43.337812 
Q 488.45125 43.337812 488.45125 45.537812 
L 488.45125 76.729687 
Q 488.45125 78.929687 490.65125 78.929687 
z
" style="fill: #ffffff; opacity: 0.8; stroke: #cccccc; stroke-linejoin: miter"/>
    </g>
    <g id="line2d_31">
     <path d="M 492.85125 52.246094 
L 503.85125 52.246094 
L 514.85125 52.246094 
" style="fill: none; stroke: #1f77b4; stroke-width: 1.5; stroke-linecap: square"/>
    </g>
    <g id="text_18">
     <!-- Error for nu = 0 -->
     <g transform="translate(523.65125 56.096094) scale(0.11 -0.11)">
      <defs>
       <path id="DejaVuSans-3d" d="M 678 2906 
L 4684 2906 
L 4684 2381 
L 678 2381 
L 678 2906 
z
M 678 1631 
L 4684 1631 
L 4684 1100 
L 678 1100 
L 678 1631 
z
" transform="scale(0.015625)"/>
      </defs>
      <use xlink:href="#DejaVuSans-45"/>
      <use xlink:href="#DejaVuSans-72" transform="translate(63.183594 0)"/>
      <use xlink:href="#DejaVuSans-72" transform="translate(102.546875 0)"/>
      <use xlink:href="#DejaVuSans-6f" transform="translate(141.410156 0)"/>
      <use xlink:href="#DejaVuSans-72" transform="translate(202.591797 0)"/>
      <use xlink:href="#DejaVuSans-20" transform="translate(243.705078 0)"/>
      <use xlink:href="#DejaVuSans-66" transform="translate(275.492188 0)"/>
      <use xlink:href="#DejaVuSans-6f" transform="translate(310.697266 0)"/>
      <use xlink:href="#DejaVuSans-72" transform="translate(371.878906 0)"/>
      <use xlink:href="#DejaVuSans-20" transform="translate(412.992188 0)"/>
      <use xlink:href="#DejaVuSans-6e" transform="translate(444.779297 0)"/>
      <use xlink:href="#DejaVuSans-75" transform="translate(508.158203 0)"/>
      <use xlink:href="#DejaVuSans-20" transform="translate(571.537109 0)"/>
      <use xlink:href="#DejaVuSans-3d" transform="translate(603.324219 0)"/>
      <use xlink:href="#DejaVuSans-20" transform="translate(687.113281 0)"/>
      <use xlink:href="#DejaVuSans-30" transform="translate(718.900391 0)"/>
     </g>
    </g>
    <g id="line2d_32">
     <path d="M 492.85125 68.392031 
L 503.85125 68.392031 
L 514.85125 68.392031 
" style="fill: none; stroke-dasharray: 5.55,2.4; stroke-dashoffset: 0; stroke: #ff7f0e; stroke-width: 1.5"/>
    </g>
    <g id="text_19">
     <!-- Error for nu = 1 -->
     <g transform="translate(523.65125 72.242031) scale(0.11 -0.11)">
      <use xlink:href="#DejaVuSans-45"/>
      <use xlink:href="#DejaVuSans-72" transform="translate(63.183594 0)"/>
      <use xlink:href="#DejaVuSans-72" transform="translate(102.546875 0)"/>
      <use xlink:href="#DejaVuSans-6f" transform="translate(141.410156 0)"/>
      <use xlink:href="#DejaVuSans-72" transform="translate(202.591797 0)"/>
      <use xlink:href="#DejaVuSans-20" transform="translate(243.705078 0)"/>
      <use xlink:href="#DejaVuSans-66" transform="translate(275.492188 0)"/>
      <use xlink:href="#DejaVuSans-6f" transform="translate(310.697266 0)"/>
      <use xlink:href="#DejaVuSans-72" transform="translate(371.878906 0)"/>
      <use xlink:href="#DejaVuSans-20" transform="translate(412.992188 0)"/>
      <use xlink:href="#DejaVuSans-6e" transform="translate(444.779297 0)"/>
      <use xlink:href="#DejaVuSans-75" transform="translate(508.158203 0)"/>
      <use xlink:href="#DejaVuSans-20" transform="translate(571.537109 0)"/>
      <use xlink:href="#DejaVuSans-3d" transform="translate(603.324219 0)"/>
      <use xlink:href="#DejaVuSans-20" transform="translate(687.113281 0)"/>
      <use xlink:href="#DejaVuSans-31" transform="translate(718.900391 0)"/>
     </g>
    </g>
   </g>
  </g>
 </g>
 <defs>
  <clipPath id="p0c627f0304">
   <rect x="61.62625" y="37.837812" width="558" height="332.64"/>
  </clipPath>
 </defs>
</svg>
